<svg width="1080" height="1350" viewBox="0 0 1080 1350" fill="none" xmlns="http://www.w3.org/2000/svg">
  <rect width="1080" height="1350" rx="48" fill="url(#bg)"/>
  <rect x="64" y="72" width="952" height="1206" rx="36" fill="rgba(255,255,255,0.18)" stroke="rgba(255,255,255,0.48)"/>
  <circle cx="868" cy="230" r="112" fill="rgba(255,255,255,0.18)"/>
  <circle cx="224" cy="1070" r="154" fill="rgba(255,255,255,0.16)"/>
  <path d="M172 953C258 789 410 686 568 686C726 686 842 782 908 929" stroke="rgba(255,255,255,0.62)" stroke-width="18" stroke-linecap="round"/>
  <path d="M292 786C374 590 470 480 540 480C610 480 706 590 788 786" stroke="rgba(255,255,255,0.86)" stroke-width="24" stroke-linecap="round"/>
  <path d="M370 768C410 654 474 592 540 592C606 592 670 654 710 768" stroke="#FAF5EF" stroke-width="16" stroke-linecap="round"/>
  <path d="M540 506C588 506 627 467 627 419C627 371 588 332 540 332C492 332 453 371 453 419C453 467 492 506 540 506Z" fill="#FFF9F3"/>
  <text x="540" y="180" text-anchor="middle" fill="#FFF9F3" font-size="44" font-family="Arial, sans-serif" letter-spacing="12">SAVE THE DATE</text>
  <text x="540" y="1160" text-anchor="middle" fill="#FFF9F3" font-size="64" font-family="Arial, sans-serif">M &amp; S</text>
  <defs>
    <linearGradient id="bg" x1="92" y1="64" x2="968" y2="1268" gradientUnits="userSpaceOnUse">
      <stop stop-color="#CAB4A4"/>
      <stop offset="0.48" stop-color="#B48776"/>
      <stop offset="1" stop-color="#7F5C50"/>
    </linearGradient>
  </defs>
</svg>
