<svg width="960" height="720" viewBox="0 0 960 720" fill="none" xmlns="http://www.w3.org/2000/svg">
  <rect width="960" height="720" rx="32" fill="#EDF8F1"/>
  <rect x="48" y="48" width="864" height="624" rx="28" fill="#F9FEFB" stroke="#CFEBDD"/>
  <path d="M124 466C210 378 298 250 438 214C596 174 684 276 842 186" stroke="#BFE4D0" stroke-width="32" stroke-linecap="round"/>
  <path d="M184 178L298 286" stroke="#D7EFE3" stroke-width="22" stroke-linecap="round"/>
  <path d="M626 438L772 576" stroke="#D7EFE3" stroke-width="18" stroke-linecap="round"/>
  <path d="M484 224C426 224 380 270 380 326C380 407 484 528 484 528C484 528 588 407 588 326C588 270 542 224 484 224Z" fill="#03C75A"/>
  <circle cx="484" cy="324" r="38" fill="#F9FEFB"/>
  <rect x="110" y="94" width="154" height="58" rx="18" fill="#03C75A"/>
  <text x="187" y="131" text-anchor="middle" fill="white" font-size="28" font-family="Arial, sans-serif" font-weight="700">NAVER MAP</text>
  <rect x="210" y="564" width="540" height="84" rx="24" fill="white"/>
  <text x="480" y="615" text-anchor="middle" fill="#0F3B23" font-size="34" font-family="Arial, sans-serif">서울 라이트하우스 웨딩 · 역삼역 5분</text>
</svg>
